#!OML:ASF F:\VICON\USERDATA\INSTALL\rory3\rory3.ASF
:FULLY-SPECIFIED
:DEGREES
40
root 0.48225336227156 18.087464572754836 6.6162964839616585 -4.519750838087433 4.69128242828683 -4.098705401402442
lfemur -1.8327520264404527 -2.546573612766507 -15.915495245232806
ltibia 63.93924133312704
lfoot 15.11443799494135 -14.380438373445706
ltoes -1.6313932038167858
rfemur -19.283920767094937 2.811132705795637 28.715886066563264
rtibia 26.731842926843093
rfoot -6.843293556234658 -6.76591834610312
rtoes 10.675422624303813
lowerback 11.488637801849903 -1.5684145102443114 0.8259886525697007
upperback -0.03289779998209273 -1.8364388686419428 2.9929518101932477
thorax -6.228046568427456 -0.8574532547654994 3.9052066052975265
lowerneck -15.738784314473818 -3.1312105421556584 -3.2187934416548134
upperneck 21.76792466539404 -3.887560469832586 1.5076224322685319
head 9.566566587329836 -1.8620373706121094 0.46003613217453304
lclavicle -2.0260790419311226e-15 -7.115121942228407e-16
lhumerus -29.775057063167885 -0.3469283742544125 82.52748823504866
lradius 29.838532285970018
lwrist 9.614538944884881
lhand -29.856346489758707 18.753371695709966
lfingers 7.12502
lthumb -3.2138770419019846 48.430822813404184
rclavicle -2.0261471848064953e-15 -7.115355184034331e-16
rhumerus -37.94831761987844 -26.566351826963032 -71.61679629437693
rradius 21.22330775873673
rwrist 9.86330966548171
rhand -17.444934720159488 22.936498932723353
rfingers 7.12502
rthumb 8.748154787155302 -6.811845912935297
41
root 0.43933010658414307 18.153183207139904 7.681981270079 -4.711687919230563 4.042324204075359 -4.708946436974263
lfemur -8.846783214324955 -1.0415442227383422 -14.597558139337231
ltibia 69.67836632930417
lfoot 6.476233951731539 -10.433557598131497
ltoes -5.6117023461605156
rfemur -15.369064979488606 3.184211869173238 30.281806231451295
rtibia 25.51864891798396
rfoot -8.885317503894521 -6.872594894068749
rtoes 9.141724878957861
lowerback 11.605022780045271 -1.1757158571782134 1.652328365715134
upperback 0.08604713023104374 -1.1862985815160965 2.906405184509375
thorax -6.271505146904725 -0.5683679920047715 3.237243142486379
lowerneck -15.4895995927497 -3.183170122870117 -3.189723035667755
upperneck 21.78257182312887 -4.023917071730679 1.7402694175233036
head 9.558301586516919 -1.9053060659485521 0.5209112864487071
lclavicle -2.0260225374296144e-15 -7.114781161500524e-16
lhumerus -30.70523133741647 0.08368374217795349 82.78024936222671
lradius 28.755153268814873
lwrist 8.125193354433845
lhand -29.592309244431704 19.166766646086174
lfingers 7.12502
lthumb -2.8652805098998857 48.918313171125824
rclavicle -2.026452959257604e-15 -7.117307575733685e-16
rhumerus -35.320239538656736 -24.44502448912691 -73.85660627389774
rradius 21.892471720696356
rwrist 9.102988540776145
rhand -17.24658985737225 23.0288672986753
rfingers 7.12502
rthumb 9.015036823932977 -6.76222047735371
42
root 0.42828278573825723 18.21971804243811 8.71443091937068 -4.661810201911123 2.9466780371248 -5.184347169331218
lfemur -14.478519432521468 0.39562364407775297 -14.04188535544827
ltibia 70.37624516663251
lfoot 0.0451372569343329 -6.766123963279776
ltoes -6.333172545462327
rfemur -12.042623936446128 3.5417398146207355 31.36845573786239
rtibia 24.15781189810097
rfoot -10.575433363062375 -6.920975266994693
rtoes 8.114831785717048
lowerback 11.509692115972525 -0.5524607601692196 2.3877767499520344
upperback 0.10905546597237109 -0.27595240941722005 2.742580999470354
thorax -6.293923445678317 -0.13364248233957454 2.3679387185607492
lowerneck -15.242144558513427 -3.2255291711604404 -3.14207618497434
upperneck 21.92133265614335 -4.114703290570529 1.8585326341400936
head 9.60349649499367 -1.9445765467606813 0.5379311484978186
lclavicle -2.0269349770530684e-15 -7.120594625129202e-16
lhumerus -31.63476675753748 0.9282715250293494 82.71668107042417
lradius 27.6875051368092
lwrist 7.492765083810928
lhand -29.561934346790927 19.6338617607383
lfingers 7.12502
lthumb -2.774103833424797 49.26916902475085
rclavicle -2.0272291461135105e-15 -7.122263258985806e-16
rhumerus -32.68799695632799 -22.259856315386855 -76.00656713270934
rradius 22.860451967972573
rwrist 7.975634463997857
rhand -17.15923411331688 22.689991483060293
rfingers 7.12502
rthumb 9.052334617989215 -7.227288402495202
43
root 0.4417643666367919 18.19628661487688 9.742578217930097 -4.328495965122908 1.7069792864521411 -5.341113401624487
lfemur -19.130354426251657 1.3592840907847297 -13.944232728153185
ltibia 67.77822862131825
lfoot -4.8639676978992314 -4.245366344520972
ltoes -9.333431629406704
rfemur -9.22652151735507 3.6534307889241626 32.06557226624796
rtibia 23.5852521594657
rfoot -12.456822989114745 -6.853640596079661
rtoes 7.579148017986407
lowerback 11.308071491987597 0.0652478224756283 3.030164993757835
upperback 0.06102038383832223 0.642042421690478 2.503215020180271
thorax -6.30326294263742 0.27934316769388046 1.362218350277271
lowerneck -15.144696763955597 -3.2494658876789817 -3.0651818848324264
upperneck 22.133737238029216 -4.164163436629772 1.8086645614875378
head 9.71489291764479 -1.96057973461771 0.5069800195657992
lclavicle -2.025319898458657e-15 -7.110249356584098e-16
lhumerus -32.68948285175963 1.9557546079896038 82.47011726638898
lradius 26.83433316190789
lwrist 8.714609792071212
lhand -29.678447281581867 19.103660077738454
lfingers 7.12502
lthumb -2.787474175115368 49.16448439915539
rclavicle -2.0276212857983298e-15 -7.124767148781331e-16
rhumerus -30.55114103477063 -20.088425710553217 -77.73430068854117
rradius 24.66607088697787
rwrist 5.961990629041836
rhand -17.202624189777016 22.142968395401724
rfingers 7.12502
rthumb 8.944128052507812 -7.94691274844614
